<?xml version="1.0" standalone="no"?><!DOCTYPE svg PUBLIC "-//W3C//DTD SVG 1.1//EN" "http://www.w3.org/Graphics/SVG/1.1/DTD/svg11.dtd"><svg t="1760431676697" class="icon" viewBox="0 0 1024 1024" version="1.1" xmlns="http://www.w3.org/2000/svg" p-id="2468" xmlns:xlink="http://www.w3.org/1999/xlink" width="256" height="256"><path d="M511.488 962.56a450.730667 450.730667 0 1 1 376.849067-203.349333 24.183467 24.183467 0 0 1-40.430934-26.538667 401.800533 401.800533 0 1 0-120.046933 118.493867 24.149333 24.149333 0 1 1 25.6 40.704A449.109333 449.109333 0 0 1 511.488 962.56z" p-id="2469"></path><path d="M503.893333 962.338133a450.56 450.56 0 0 1-296.96-782.865066 24.132267 24.132267 0 0 1 39.662934 11.332266c8.533333 30.037333 19.968 48.384 34.645333 54.613334a96.2048 96.2048 0 0 0 28.484267 4.949333c21.76 1.792 48.810667 4.096 67.498666 28.416a70.570667 70.570667 0 0 1 12.885334 49.493333c0 9.984 0 12.288 1.706666 14.592a43.707733 43.707733 0 0 0 22.954667 17.066667 208.571733 208.571733 0 0 1 42.069333 22.9376A61.013333 61.013333 0 0 1 484.693333 432.861867c4.283733-5.461333 8.533333-11.008 12.373334-15.957334 15.274667-20.053333 32.597333-42.666667 50.346666-61.764266 28.910933-31.061333 62.958933-24.405333 85.333334-19.968 20.821333 4.096 24.661333 3.498667 28.586666-1.194667 25.6-29.866667 55.9616-100.590933 58.350934-135.0656 0-1.877333 1.28-19.438933 0.426666-43.9296a24.234667 24.234667 0 0 1 37.376-21.162667 450.747733 450.747733 0 0 1 130.952534 625.390934 24.183467 24.183467 0 0 1-40.430934-26.538667 402.295467 402.295467 0 0 0-79.854933-530.773333v0.682666c-3.1744 44.544-37.717333 125.3376-69.802667 163.037867-23.296 27.477333-54.254933 21.418667-74.820266 17.066667-22.357333-4.352-30.976-4.949333-40.704 5.461333-16.110933 17.066667-32.750933 39.082667-47.342934 58.197333-34.133333 44.100267-54.101333 70.894933-79.684266 68.266667a30.122667 30.122667 0 0 1-22.033067-12.8512c-8.533333-12.885333-5.12-27.306667-1.536-41.198933 6.229333-23.893333 5.717333-31.658667-2.730667-37.461334a156.654933 156.654933 0 0 0-33.109333-18.090666 90.6752 90.6752 0 0 1-41.966933-31.470934 64.4608 64.4608 0 0 1-12.117334-47.104c0-10.24 0-13.994667-2.986666-18.176-5.546667-6.741333-14.08-8.448-33.536-9.728a135.799467 135.799467 0 0 1-43.332267-8.533333 98.2016 98.2016 0 0 1-48.128-49.134933 402.2784 402.2784 0 0 0 273.6128 672.426666l2.816-6.826666c20.394667-48.554667 48.384-114.926933 23.296-145.066667-9.130667-11.076267-23.552-15.684267-40.260267-21.1456-24.149333-7.765333-54.186667-17.578667-68.949333-51.2-1.792-4.266667-3.754667-8.533333-5.802667-12.970667-16.196267-35.566933-40.686933-89.412267 9.898667-120.712533 28.501333-17.578667 59.733333-11.093333 85.333333-5.973333 15.786667 3.242667 30.72 6.2976 39.594667 2.901333 33.621333-12.8 61.44-2.474667 81.732267 5.12 11.264 4.1984 20.992 7.765333 27.050666 6.058667a112.64 112.64 0 0 1 46.984534-1.979734 109.602133 109.602133 0 0 0 16.554666 1.194667c39.68-2.048 53.930667 16.2816 65.006934 48.622933 20.053333 58.436267 2.4064 111.7696-4.2496 131.822934a455.0144 455.0144 0 0 1-67.754667 125.2352c9.728-5.205333 19.370667-10.752 28.757333-17.066667a24.149333 24.149333 0 1 1 25.6 40.686933A445.7472 445.7472 0 0 1 621.7216 948.906667 24.183467 24.183467 0 0 1 599.04 908.0832c57.685333-55.381333 101.956267-121.173333 121.582933-180.445867 5.717333-17.066667 19.2-58.026667 4.437334-100.932266a49.493333 49.493333 0 0 0-7.253334-15.957334h-9.642666a137.7792 137.7792 0 0 1-24.576-1.706666 69.188267 69.188267 0 0 0-28.142934 0.512c-21.333333 6.058667-40.277333-1.024-57.002666-7.253334-19.268267-7.168-31.8976-11.264-47.684267-5.205333-22.101333 8.533333-45.653333 3.584-66.4576-0.682667s-38.058667-7.850667-50.176 0c-10.752 6.570667-11.008 16.128 8.533333 59.733334 2.133333 4.608 4.181333 9.216 6.144 13.738666 5.802667 13.312 17.578667 17.664 39.492267 24.746667 19.882667 6.4 44.544 14.421333 62.634667 36.352 43.6736 52.906667 9.216 134.9632-15.957334 194.8672-3.242667 7.594667-6.314667 14.916267-9.045333 21.828267a24.32 24.32 0 0 1-22.016 14.677333z" opacity=".3" p-id="2470"></path><path d="M712.686933 318.088533c-104.311467 0-189.201067 86.408533-189.201066 191.761067a191.5392 191.5392 0 0 0 55.227733 135.509333l133.461333 135.509334c89.4976-89.992533 133.973333-135.509333 134.485334-136.021334a196.027733 196.027733 0 0 0 55.227733-134.997333c0-105.864533-85.4016-191.761067-189.201067-191.761067z m0 243.336534a62.907733 62.907733 0 1 1 62.907734-62.890667A62.856533 62.856533 0 0 1 712.686933 561.493333z" p-id="2471"></path></svg>